<?xml version="1.0" encoding="UTF-8"?>
<svg width="56px" height="56px" viewBox="0 0 56 56" version="1.1" xmlns="http://www.w3.org/2000/svg" xmlns:xlink="http://www.w3.org/1999/xlink">
    <!-- Generator: Sketch 53 (72520) - https://sketchapp.com -->
    <title>ENDCALL</title>
    <desc>Created with Sketch.</desc>
    <g id="ENDCALL" stroke="none" stroke-width="1" fill="none" fill-rule="evenodd">
        <g id="Group-5">
            <path d="M55.5172414,27.7586207 C55.5172414,35.5503448 52.2151724,43.0331034 46.4510345,48.2855172 C46.0165517,48.6813793 45.5337931,49.0868966 45.0317241,49.4924138 C40.1462069,53.3737931 34.0151724,55.5172414 27.7586207,55.5172414 C21.4441379,55.5172414 15.4868966,53.4413793 10.5434483,49.5213793 C10.0703448,49.1641379 9.60689655,48.7586207 9.15310345,48.3531034 C3.33103448,43.0813793 0,35.5793103 0,27.7586207 C0,12.4551724 12.4551724,0 27.7586207,0 C43.062069,0 55.5172414,12.4551724 55.5172414,27.7586207" id="Fill-1" fill="#FF5A66"></path>
            <path d="M47.3169103,30.0743172 L43.3032552,34.0889379 C42.8398069,34.5523862 42.2102897,34.8111448 41.555669,34.8072828 C40.9203586,34.8063172 40.3072552,34.5639724 39.8428414,34.1314207 C38.6127724,32.9863172 37.2253241,32.0246621 35.7210483,31.2773517 C34.8974621,30.7810759 34.4301517,29.8580414 34.5189793,28.9012138 L34.5189793,24.4598345 L34.5180138,24.4598345 C32.3011862,23.9577655 30.0302897,23.7472828 27.7593931,23.8322483 C26.8402207,23.8003862 25.9220138,23.8177655 25.0057379,23.8795586 C24.7614621,23.8969379 24.5171862,23.9172138 24.2729103,23.9403862 C24.1512552,23.9529379 24.0286345,23.9654897 23.9060138,23.9790069 C23.4193931,24.0330759 22.9327724,24.1006621 22.4480828,24.1817655 C21.9633931,24.2619034 21.4806345,24.3565241 21.0007724,24.4646621 L21.0007724,28.9012138 C21.0142897,29.0991448 21.003669,29.2961103 20.9727724,29.4872828 C20.9631172,29.5403862 20.9534621,29.5934897 20.9409103,29.6465931 C20.8926345,29.8599724 20.8173241,30.0656276 20.7159448,30.2577655 C20.6782897,30.3292138 20.6377379,30.3996966 20.5933241,30.4682483 C20.5942897,30.4692138 20.5942897,30.4692138 20.5933241,30.4692138 C20.5633931,30.5145931 20.5324966,30.5580414 20.5006345,30.6014897 C20.4851862,30.6236966 20.4678069,30.6459034 20.4504276,30.6681103 C20.2650483,30.9008 20.0362207,31.1045241 19.7726345,31.2657655 C18.2770483,32.018869 16.8944276,32.9805241 15.6682207,34.1208 C15.3940138,34.3650759 15.0811862,34.5398345 14.7509793,34.6470069 C14.2296,34.8150069 13.667669,34.8121103 13.1491862,34.6402483 C13.0738759,34.6141793 13.0004966,34.5861793 12.9271172,34.5533517 C12.6712552,34.4403862 12.4298759,34.2839724 12.2145655,34.0841103 L8.20091034,30.0656276 C7.91318621,29.7856276 7.7056,29.4390069 7.58877241,29.0634207 C7.56656552,28.9871448 7.54628966,28.910869 7.52987586,28.8336276 C7.49704828,28.6704552 7.4816,28.5043862 7.48256552,28.3354207 C7.47870345,27.6808 7.73746207,27.0522483 8.19994483,26.5888 C8.54173793,26.2634207 8.89125517,25.9476966 9.24463448,25.6435586 C9.42228966,25.4910069 9.60091034,25.3403862 9.78049655,25.1926621 C10.0508414,24.9715586 10.3240828,24.7562483 10.5992552,24.546731 C10.7846345,24.406731 10.9690483,24.2696276 11.1553931,24.1354207 C11.4353931,23.9326621 11.7173241,23.7356966 12.0040828,23.5454897 C12.1942897,23.4190069 12.3854621,23.2944552 12.5785655,23.1718345 C13.1559448,22.8059034 13.7429793,22.4631448 14.3406345,22.1425931 C15.4345655,21.5555586 16.5593931,21.0448 17.7064276,20.6112828 C23.5429793,18.4060414 29.9578759,18.1916966 35.9073931,19.9682483 C35.9073931,19.9682483 35.9073931,19.9672828 35.9073931,19.9682483 C36.2260138,20.0638345 36.5427034,20.1642483 36.8574621,20.2704552 C36.8584276,20.2694897 36.8584276,20.2694897 36.8584276,20.2704552 C38.2265655,20.7329379 39.5667034,21.3016276 40.8653241,21.9774897 C40.8653241,21.9765241 40.8653241,21.9765241 40.8653241,21.9774897 C41.3644966,22.2381793 41.8588414,22.5133517 42.3444966,22.8049379 C42.3454621,22.8039724 42.3454621,22.8049379 42.3454621,22.8049379 C44.0969103,23.8563862 45.759531,25.1115586 47.3004966,26.5733517 L47.3004966,26.5714207 C47.3014621,26.5723862 47.3014621,26.5723862 47.3014621,26.5733517 C47.6992552,26.9682483 47.9348414,27.4635586 48.0091862,27.9781793 C48.0207724,28.0544552 48.027531,28.130731 48.0313931,28.2070069 C48.0642207,28.8780414 47.8267034,29.5596966 47.3169103,30.0743172" id="Fill-3" fill="#FFFFFF"></path>
        </g>
    </g>
</svg>