<?xml version="1.0" encoding="UTF-8"?>
<svg width="24px" height="24px" viewBox="0 0 24 24" version="1.1" xmlns="http://www.w3.org/2000/svg" xmlns:xlink="http://www.w3.org/1999/xlink">
    <!-- Generator: Sketch 53 (72520) - https://sketchapp.com -->
    <title>SCREEN_SIZEVIEW</title>
    <desc>Created with Sketch.</desc>
    <defs>
        <polygon id="path-1" points="0 0.892262486 10.1082807 0.892262486 10.1082807 11 0 11"></polygon>
        <polygon id="path-3" points="0.46237478 0.435394318 10.561 0.435394318 10.561 10.5457771 0.46237478 10.5457771"></polygon>
    </defs>
    <g id="SCREEN_SIZEVIEW" stroke="none" stroke-width="1" fill="none" fill-rule="evenodd">
        <g id="Group-7" transform="translate(2.000000, 1.000000)">
            <g id="Group-3" transform="translate(0.000000, 10.564800)">
                <mask id="mask-2" fill="white">
                    <use xlink:href="#path-1"></use>
                </mask>
                <g id="Clip-2"></g>
                <path d="M3.3854,5.4864 C3.4124,5.4514 3.4264,5.4314 3.4434,5.4144 C4.8904,3.9664 6.3364,2.5194 7.7834,1.0724 C7.8584,0.9984 7.9344,0.9274 8.0404,0.9034 C8.2054,0.8674 8.3424,0.9204 8.4594,1.0374 C8.8524,1.4314 9.2444,1.8234 9.6384,2.2164 C9.7434,2.3224 9.8514,2.4274 9.9554,2.5344 C10.1604,2.7444 10.1594,2.9814 9.9514,3.1884 C8.4964,4.6444 7.0404,6.0994 5.5844,7.5554 C5.5674,7.5734 5.5424,7.5854 5.5114,7.6074 C5.5444,7.6344 5.5634,7.6464 5.5784,7.6624 C6.1964,8.2794 6.8134,8.8984 7.4324,9.5144 C7.6004,9.6814 7.7024,9.8744 7.7104,10.1124 C7.7254,10.5904 7.3434,10.9884 6.8624,10.9994 C6.8494,11.0004 6.8374,11.0004 6.8254,11.0004 L0.8834,11.0004 C0.4824,10.9994 0.1364,10.7454 0.0324,10.3714 C0.0124,10.2974 0.0014,10.2174 0.0014,10.1404 C-0.0006,8.1424 -0.0006,6.1434 0.0004,4.1444 C0.0004,3.7974 0.2164,3.4834 0.5394,3.3494 C0.8514,3.2204 1.2094,3.2944 1.4574,3.5414 C2.0824,4.1654 2.7064,4.7904 3.3304,5.4154 C3.3484,5.4324 3.3604,5.4534 3.3854,5.4864" id="Fill-1" fill="#2A2E35" mask="url(#mask-2)"></path>
            </g>
            <g id="Group-6" transform="translate(10.000000, 0.564800)">
                <mask id="mask-4" fill="white">
                    <use xlink:href="#path-3"></use>
                </mask>
                <g id="Clip-5"></g>
                <path d="M7.1725,5.9444 C7.1465,5.9824 7.1335,6.0064 7.1155,6.0244 C5.6585,7.4814 4.2015,8.9394 2.7435,10.3964 C2.5445,10.5964 2.3015,10.5954 2.1005,10.3944 C1.6085,9.9024 1.1205,9.4064 0.6215,8.9214 C0.4105,8.7154 0.4075,8.4424 0.6235,8.2294 C1.4075,7.4564 2.1835,6.6744 2.9615,5.8954 C3.6345,5.2224 4.3075,4.5494 4.9815,3.8774 C4.9975,3.8604 5.0205,3.8504 5.0545,3.8284 C5.0165,3.7994 4.9955,3.7864 4.9795,3.7694 C4.3595,3.1514 3.7435,2.5284 3.1195,1.9144 C2.7995,1.5984 2.7885,1.1574 2.9655,0.8714 C3.1435,0.5854 3.4005,0.4344 3.7415,0.4354 C4.2225,0.4374 4.7015,0.4364 5.1815,0.4364 C6.6725,0.4364 8.1635,0.4374 9.6545,0.4354 C9.9845,0.4344 10.2375,0.5654 10.4235,0.8334 C10.5095,0.9584 10.5535,1.0974 10.5595,1.2494 C10.5605,1.2734 10.5605,1.2974 10.5605,1.3204 C10.5605,3.3014 10.5595,5.2824 10.5615,7.2634 C10.5615,7.6164 10.4015,7.8754 10.1055,8.0454 C9.7765,8.2334 9.3815,8.1684 9.1035,7.8934 C8.8415,7.6344 8.5825,7.3734 8.3215,7.1134 C7.9575,6.7484 7.5925,6.3844 7.2285,6.0194 C7.2115,6.0024 7.1995,5.9814 7.1725,5.9444" id="Fill-4" fill="#2A2E35" mask="url(#mask-4)"></path>
            </g>
        </g>
    </g>
</svg>