<?xml version="1.0" encoding="UTF-8"?>
<svg width="56px" height="56px" viewBox="0 0 56 56" version="1.1" xmlns="http://www.w3.org/2000/svg" xmlns:xlink="http://www.w3.org/1999/xlink">
    <!-- Generator: Sketch 53 (72520) - https://sketchapp.com -->
    <title>SCREENSHARE_OFF</title>
    <desc>Created with Sketch.</desc>
    <defs>
        <polygon id="path-1" points="0 0 55.99986 0 55.99986 55.99986 0 55.99986"></polygon>
    </defs>
    <g id="SCREENSHARE_OFF" stroke="none" stroke-width="1" fill="none" fill-rule="evenodd">
        <g id="Group-12">
            <g id="Group-3">
                <mask id="mask-2" fill="white">
                    <use xlink:href="#path-1"></use>
                </mask>
                <g id="Clip-2"></g>
                <path d="M55.99986,27.99986 C55.99986,43.46426 43.46426,55.99986 27.99986,55.99986 C12.53686,55.99986 -0.00014,43.46426 -0.00014,27.99986 C-0.00014,12.53686 12.53686,-0.00014 27.99986,-0.00014 C43.46426,-0.00014 55.99986,12.53686 55.99986,27.99986" id="Fill-1" fill="#2A2E35" mask="url(#mask-2)"></path>
            </g>
            <path d="M42.877641,37.32874 L26.9240234,37.32874 L12.498799,37.32874 C11.4983225,37.32874 10.68822,36.48734 10.68822,35.44994 L10.68822,16.82994 C10.68822,15.79254 11.4983225,14.95254 12.498799,14.95254 L42.877641,14.95254 C43.8767674,14.95254 44.68822,15.79254 44.68822,16.82994 L44.68822,35.44994 C44.68822,36.48734 43.8767674,37.32874 42.877641,37.32874" id="Fill-4" fill="#FFFFFF"></path>
        </g>
        <path d="M22.2222778,31.7777083 L22.2222778,31.7777083 C21.9259074,31.4813194 21.9259074,31.0003439 22.2222778,30.703955 L32.704036,20.2222917 C33.0004064,19.9259028 33.4813518,19.9259028 33.7777222,20.2222917 C34.0740926,20.5186806 34.0740926,20.9989057 33.7777222,21.2952947 L23.295964,31.7777083 C22.9995936,32.0740972 22.5193985,32.0740972 22.2222778,31.7777083" id="Fill-11" stroke="#2A2E35" fill="#2A2E35"></path>
        <path d="M22.2222778,31.7777083 L22.2222778,31.7777083 C21.9259074,31.4813194 21.9259074,31.0003439 22.2222778,30.703955 L32.704036,20.2222917 C33.0004064,19.9259028 33.4813518,19.9259028 33.7777222,20.2222917 C34.0740926,20.5186806 34.0740926,20.9989057 33.7777222,21.2952947 L23.295964,31.7777083 C22.9995936,32.0740972 22.5193985,32.0740972 22.2222778,31.7777083" id="Fill-11" stroke="#2A2E35" fill="#2A2E35" transform="translate(28.000000, 26.000000) rotate(-270.000000) translate(-28.000000, -26.000000) "></path>
        <polygon id="Fill-8" fill="#FFFFFF" points="26.8268 40.8796 28.9982 40.8796 28.9982 37.0086 26.8268 37.0086"></polygon>
        <path d="M21.82264,39.8793753 L21.82264,39.8793753 C21.82264,39.3274733 22.30844,38.88002 22.90764,38.88002 L32.91624,38.88002 C33.51684,38.88002 34.00264,39.3274733 34.00264,39.8793753 C34.00264,40.4325667 33.51684,40.88002 32.91624,40.88002 L22.90764,40.88002 C22.30844,40.88002 21.82264,40.4325667 21.82264,39.8793753" id="Fill-10" fill="#FFFFFF"></path>
    </g>
</svg>