<?xml version="1.0" encoding="UTF-8"?>
<svg width="40px" height="40px" viewBox="0 0 40 40" version="1.1" xmlns="http://www.w3.org/2000/svg" xmlns:xlink="http://www.w3.org/1999/xlink">
    <!-- Generator: Sketch 53 (72520) - https://sketchapp.com -->
    <title>MIC_ON</title>
    <desc>Created with Sketch.</desc>
    <defs>
        <polygon id="path-1" points="0.0002 0.0001 40 0.0001 40 40 0.0002 40"></polygon>
        <polygon id="path-3" points="0 40 40 40 40 0 0 0"></polygon>
    </defs>
    <g id="MIC_ON" stroke="none" stroke-width="1" fill="none" fill-rule="evenodd">
        <g id="Group-11">
            <g id="Group-3">
                <mask id="mask-2" fill="white">
                    <use xlink:href="#path-1"></use>
                </mask>
                <g id="Clip-2"></g>
                <path d="M40.0002,20.0001 C40.0002,25.6141 37.6212,31.0051 33.4682,34.7901 C33.1552,35.0751 32.8072,35.3671 32.4452,35.6591 C28.9252,38.4561 24.5082,40.0001 20.0002,40.0001 C15.4502,40.0001 11.1582,38.5041 7.5962,35.6801 C7.2552,35.4221 6.9212,35.1301 6.5952,34.8381 C2.4002,31.0401 0.0002,25.6351 0.0002,20.0001 C0.0002,8.9741 8.9742,0.0001 20.0002,0.0001 C31.0262,0.0001 40.0002,8.9741 40.0002,20.0001" id="Fill-1" fill="#2A2E35" mask="url(#mask-2)"></path>
            </g>
            <path d="M24.8947,20.0675 L24.8947,21.0625 C24.8947,23.8455 22.6307,26.1355 19.8487,26.0865 C17.1557,26.0385 14.9807,23.8345 14.9807,21.1305 L14.9807,20.0675 C14.9807,19.6945 14.6787,19.3935 14.3067,19.3935 C13.9337,19.3935 13.6317,19.6945 13.6317,20.0675 L13.6317,21.0465 C13.6317,24.5205 16.4057,27.4045 19.8797,27.4365 C23.3837,27.4675 26.2437,24.6275 26.2437,21.1305 L26.2437,20.0675 C26.2437,19.6945 25.9417,19.3935 25.5687,19.3935 C25.1967,19.3935 24.8947,19.6945 24.8947,20.0675" id="Fill-4" fill="#FFFFFF"></path>
            <path d="M19.9377,24.7912 L19.9377,24.7912 C17.9817,24.7912 16.3967,23.2062 16.3967,21.2502 L16.3967,13.6262 C16.3967,11.6712 17.9817,10.0862 19.9377,10.0862 C21.8937,10.0862 23.4787,11.6712 23.4787,13.6262 L23.4787,21.2502 C23.4787,23.2062 21.8937,24.7912 19.9377,24.7912" id="Fill-6" fill="#FFFFFF"></path>
            <mask id="mask-4" fill="white">
                <use xlink:href="#path-3"></use>
            </mask>
            <g id="Clip-9"></g>
            <polygon id="Fill-8" fill="#FFFFFF" mask="url(#mask-4)" points="19.162 29.914 20.713 29.914 20.713 27.149 19.162 27.149"></polygon>
            <path d="M15.5876,29.1383 L15.5876,29.1383 C15.5876,28.7103 15.9346,28.3633 16.3626,28.3633 L23.5116,28.3633 C23.9406,28.3633 24.2876,28.7103 24.2876,29.1383 C24.2876,29.5673 23.9406,29.9143 23.5116,29.9143 L16.3626,29.9143 C15.9346,29.9143 15.5876,29.5673 15.5876,29.1383" id="Fill-10" fill="#FFFFFF" mask="url(#mask-4)"></path>
        </g>
    </g>
</svg>