<?xml version="1.0" encoding="UTF-8"?>
<svg width="56px" height="56px" viewBox="0 0 56 56" version="1.1" xmlns="http://www.w3.org/2000/svg" xmlns:xlink="http://www.w3.org/1999/xlink">
    <!-- Generator: Sketch 53 (72520) - https://sketchapp.com -->
    <title>SCREENSHARE_ON</title>
    <desc>Created with Sketch.</desc>
    <defs>
        <polygon id="path-1" points="0 0 55.99986 0 55.99986 55.99986 0 55.99986"></polygon>
    </defs>
    <g id="SCREENSHARE_ON" stroke="none" stroke-width="1" fill="none" fill-rule="evenodd">
        <g id="Group-12">
            <g id="Group-3">
                <mask id="mask-2" fill="white">
                    <use xlink:href="#path-1"></use>
                </mask>
                <g id="Clip-2"></g>
                <path d="M55.99986,27.99986 C55.99986,43.46426 43.46426,55.99986 27.99986,55.99986 C12.53686,55.99986 -0.00014,43.46426 -0.00014,27.99986 C-0.00014,12.53686 12.53686,-0.00014 27.99986,-0.00014 C43.46426,-0.00014 55.99986,12.53686 55.99986,27.99986" id="Fill-1" fill="#2A2E35" mask="url(#mask-2)"></path>
            </g>
            <path d="M42.877641,37.32874 L26.9240234,37.32874 L12.498799,37.32874 C11.4983225,37.32874 10.68822,36.48734 10.68822,35.44994 L10.68822,16.82994 C10.68822,15.79254 11.4983225,14.95254 12.498799,14.95254 L42.877641,14.95254 C43.8767674,14.95254 44.68822,15.79254 44.68822,16.82994 L44.68822,35.44994 C44.68822,36.48734 43.8767674,37.32874 42.877641,37.32874" id="Fill-4" fill="#FFFFFF"></path>
            <path d="M32.55952,18.92994 L32.55952,20.10874 C32.55952,20.75554 32.55252,21.40374 32.56372,22.05054 C32.56652,22.20314 32.51892,22.24794 32.33132,22.26054 C30.13472,22.40614 27.99692,22.77714 25.93472,23.41694 C23.57292,24.14774 21.42532,25.16554 19.63752,26.64674 C18.12972,27.89554 17.05312,29.34454 16.64712,31.09034 C16.39792,32.16834 16.45672,33.23654 16.79412,34.29634 C16.80672,34.33554 16.82912,34.37474 16.85712,34.43774 C17.12312,33.73774 17.47592,33.09374 17.93372,32.48894 C19.13072,30.91114 20.78132,29.71974 22.70912,28.77054 C25.16472,27.56234 27.83732,26.84974 30.66392,26.50394 C31.19172,26.43814 31.72652,26.40034 32.25572,26.33874 C32.48952,26.31074 32.57072,26.34994 32.56652,26.56554 C32.54972,27.53994 32.55952,28.51434 32.55952,29.48874 L32.55952,29.67634 C32.65892,29.68474 32.69112,29.62734 32.73312,29.59234 C34.84572,27.86754 36.95832,26.14134 39.06952,24.41514 C39.15632,24.34514 39.21792,24.30314 39.09612,24.20514 C36.96112,22.46774 34.83032,20.72754 32.69952,18.98874 C32.66592,18.96214 32.64632,18.91314 32.55952,18.92994" id="Fill-10" fill="#2A2E35"></path>
        </g>
        <polygon id="Fill-8" fill="#FFFFFF" points="26.8268 40.8796 28.9982 40.8796 28.9982 37.0086 26.8268 37.0086"></polygon>
        <path d="M21.82264,39.8793753 L21.82264,39.8793753 C21.82264,39.3274733 22.30844,38.88002 22.90764,38.88002 L32.91624,38.88002 C33.51684,38.88002 34.00264,39.3274733 34.00264,39.8793753 C34.00264,40.4325667 33.51684,40.88002 32.91624,40.88002 L22.90764,40.88002 C22.30844,40.88002 21.82264,40.4325667 21.82264,39.8793753" id="Fill-10" fill="#FFFFFF"></path>
    </g>
</svg>