<?xml version="1.0" encoding="UTF-8"?>
<svg width="40px" height="40px" viewBox="0 0 40 40" version="1.1" xmlns="http://www.w3.org/2000/svg" xmlns:xlink="http://www.w3.org/1999/xlink">
    <!-- Generator: Sketch 53 (72520) - https://sketchapp.com -->
    <title>VIDEO_OFF</title>
    <desc>Created with Sketch.</desc>
    <defs>
        <polygon id="path-1" points="0.0003 0.0001 40 0.0001 40 40 0.0003 40"></polygon>
    </defs>
    <g id="VIDEO_OFF" stroke="none" stroke-width="1" fill="none" fill-rule="evenodd">
        <g id="Group-10">
            <g id="Group-3">
                <mask id="mask-2" fill="white">
                    <use xlink:href="#path-1"></use>
                </mask>
                <g id="Clip-2"></g>
                <path d="M40.0003,20.0001 C40.0003,25.6141 37.6213,31.0051 33.4683,34.7901 C33.1543,35.0751 32.8073,35.3671 32.4453,35.6591 C28.9253,38.4561 24.5083,40.0001 20.0003,40.0001 C15.4503,40.0001 11.1583,38.5041 7.5973,35.6801 C7.2563,35.4221 6.9223,35.1301 6.5953,34.8381 C2.3993,31.0401 0.0003,25.6351 0.0003,20.0001 C0.0003,8.9741 8.9743,0.0001 20.0003,0.0001 C31.0253,0.0001 40.0003,8.9741 40.0003,20.0001" id="Fill-1" fill="#2A2E35" mask="url(#mask-2)"></path>
            </g>
            <path d="M29.6624,15.8126 L29.6494,24.8076 C29.6494,24.9466 29.5764,25.0756 29.4564,25.1466 C29.3364,25.2176 29.1874,25.2206 29.0654,25.1536 L24.7934,22.8126 L24.7914,24.1876 C24.7884,25.2776 23.9034,26.1596 22.8134,26.1596 L12.9864,26.1456 C11.8964,26.1426 11.0154,25.2586 11.0154,24.1686 L11.0254,16.3736 C11.0284,15.2836 11.9134,14.4016 13.0034,14.4026 L22.8304,14.4166 C23.9204,14.4186 24.8024,15.3036 24.8024,16.3936 L24.8004,17.7936 L29.0794,15.4656 C29.2014,15.3986 29.3504,15.4016 29.4704,15.4736 C29.5904,15.5436 29.6634,15.6726 29.6624,15.8126" id="Fill-4" fill="#FFFFFF"></path>
            <path d="M9.6087,29.3712 L9.6087,29.3712 C9.2127,28.9762 9.2127,28.3352 9.6087,27.9402 L24.1357,13.4132 C24.5307,13.0182 25.1717,13.0182 25.5667,13.4132 C25.9617,13.8082 25.9617,14.4492 25.5667,14.8442 L11.0397,29.3712 C10.6437,29.7662 10.0037,29.7662 9.6087,29.3712" id="Fill-6" fill="#2A2E35"></path>
            <path d="M9.638,27.7233 L9.638,27.7233 C9.242,27.3283 9.242,26.6873 9.638,26.2923 L24.165,11.7653 C24.56,11.3703 25.201,11.3703 25.596,11.7653 C25.991,12.1603 25.991,12.8013 25.596,13.1963 L11.069,27.7233 C10.673,28.1183 10.033,28.1183 9.638,27.7233" id="Fill-8" fill="#FFFFFF"></path>
        </g>
    </g>
</svg>